<?xml version="1.0" encoding="UTF-8"?>
<svg xmlns="http://www.w3.org/2000/svg" viewBox="0 0 300 300" width="300" height="300">
  <path fill="#72c02c" d="M216.79,108.1c-5.05-8.76-12.49-15.22-21.65-18.79c-8.1-3.2-17.06-3.73-25.54-1.54
    c-13.56,3.52-25.16,14.32-29.68,27.54c-2.91,8.66-2.43,17.46,1.35,25.56c3.31,7.15,8.88,13.13,15.76,16.91
    c6.65,3.6,14.12,4.78,21.48,3.4c12.21-2.27,23.02-11.46,27.52-23.13C210.33,128.09,210.72,116.9,216.79,108.1z"/>
  <path fill="#72c02c" d="M150,0C67.2,0,0,67.2,0,150s67.2,150,150,150s150-67.2,150-150S232.8,0,150,0z M233.36,183.83
    c-2.38,4.06-5.11,7.83-8.38,11.38c-5.94,6.46-13.24,11.75-21.15,15.46c-6.47,3.05-13.29,5.29-20.24,6.65
    c-13.35,2.67-27.24,2.57-40.41-0.81c-7.05-1.76-13.84-4.5-20.12-8.21c-6.42-3.67-12.23-8.4-17.44-13.93
    c-6.14-6.59-11.22-14.54-14.76-22.75c-0.93-2.22-1.78-4.49-2.55-6.78c-0.24-0.73-0.47-1.47-0.69-2.21
    c-4.6-15.16-4.26-32.01,1.76-46.75c3.08-7.44,7.23-14.49,12.47-20.53c3.34-3.87,7.06-7.45,11.17-10.56
    c3.32-2.47,6.86-4.64,10.59-6.46c17.97-8.71,39.63-9.05,57.86-0.78c5.98,2.78,11.44,6.47,16.34,10.89
    c2.28,2.08,4.37,4.38,6.3,6.83c0.41,0.48,0.81,0.97,1.18,1.47c2.02,2.63,4.06,5.36,5.62,8.29c0.3,0.52,0.59,1.05,0.86,1.59
    c0.67,1.28,1.09,2.68,1.63,4.03c0.66,1.59,1.22,3.24,1.75,4.88c0.75,2.34,1.53,4.69,1.88,7.14c0.49,2.73,0.8,5.52,1.28,8.26
    c0.34,2.4,0.42,4.84,0.4,7.26c0,0.61-0.03,1.21-0.06,1.81c-0.04,2.89-0.38,5.77-0.87,8.61c-0.45,2.61-1.09,5.18-1.84,7.71
    c-0.84,2.82-1.9,5.57-3.09,8.25c-1.1,2.41-2.35,4.73-3.74,6.96c-1.63,2.63-3.48,5.1-5.46,7.48
    C236.34,179.14,234.95,181.53,233.36,183.83z"/>
</svg>
