<?xml version="1.0" encoding="UTF-8"?>
<svg xmlns="http://www.w3.org/2000/svg" viewBox="0 0 300 300" width="300" height="300">
  <path fill="#F22F46" d="M150,0C67.2,0,0,67.2,0,150s67.2,150,150,150s150-67.2,150-150S232.8,0,150,0z M144.8,62.3
    c9.9-9.9,25.8-9.9,35.7,0c9.9,9.9,9.9,25.8,0,35.7c-9.9,9.9-25.8,9.9-35.7,0C135,88.1,135,72.2,144.8,62.3z M75.3,168.2
    c-9.9-9.9-9.9-25.8,0-35.7c9.9-9.9,25.8-9.9,35.7,0c9.9,9.9,9.9,25.8,0,35.7C101.1,178,85.2,178,75.3,168.2z M144.8,237.7
    c-9.9,9.9-25.8,9.9-35.7,0c-9.9-9.9-9.9-25.8,0-35.7c9.9-9.9,25.8-9.9,35.7,0C154.6,211.9,154.6,227.8,144.8,237.7z
     M154.4,168.5c-9.9-9.9-9.9-25.8,0-35.7c9.9-9.9,25.8-9.9,35.7,0c9.9,9.9,9.9,25.8,0,35.7C180.2,178.4,164.3,178.4,154.4,168.5z
     M189,237.7c-9.9,9.9-25.8,9.9-35.7,0c-9.9-9.9-9.9-25.8,0-35.7c9.9-9.9,25.8-9.9,35.7,0C198.9,211.9,198.9,227.8,189,237.7z
     M224.7,132.5c-9.9,9.9-25.8,9.9-35.7,0c-9.9-9.9-9.9-25.8,0-35.7c9.9-9.9,25.8-9.9,35.7,0C234.5,106.7,234.5,122.6,224.7,132.5
    z"/>
</svg>
