<?xml version="1.0" encoding="UTF-8"?>
<svg xmlns="http://www.w3.org/2000/svg" viewBox="0 0 374 130" width="374" height="130">
  <path fill="#FF4A00" d="M111.57,77.86c-7.67,15.87-17.65,31-29.21,43.82H145.5c0-27.56-14.78-42.85-33.93-43.82ZM89.94,65.98l-22.83,19.79v17.42h19.61l23.76-20.63v-16.58h-20.54ZM82.36,45.04c-7.29-9.34-12.3-20.44-14.6-32.17h-30.95c5.81,11.64,15.96,23.21,29.02,31.73l16.53,.44Zm-15.25,20.94l-37.62,32.2c-13.51-9.89-24.01-22.68-29.49-36.85h37.99l29.11-25.23-14.97-14.72c-18.36,5.08-33.78,20.67-39.03,40.68-9.89-6.3-16.7-14.78-19.99-24.39h-2.42C-3.64,68.76,20.65,106.18,54.39,121.68h11.45c13.32-13.32,24.95-30.57,32.91-49.55l-31.66-6.15ZM259.58,43.18c0,1.5-.35,1.94-1.86,1.94h-19.61c-1.59,0-1.94-.44-1.94-1.94V9.35c0-1.59,.35-1.94,1.94-1.94h19.61c1.51,0,1.86,.35,1.86,1.94v33.83Zm114.08,22.22v12.3c0,.26-.18,.71-.71,.97-1.94,.88-5.9,1.59-8.67,1.59-4.75,0-7.76-2.12-7.76-6.6V59.5c0-4.04,2.65-6.78,7.76-6.78,1.51,0,4.31,.18,6.25,.71,.88,.26,3.01,.97,3.01,.97,.35,.18,.62,.44,.62,.79v10.21Zm-39.99-43.72h0c-1.5-1.41-3.01-2.65-4.49-3.62-3.71-2.38-7.67-3.54-12.83-3.54-4.93,0-9.45,1.24-13.24,3.71-3.8,2.39-6.87,5.9-9.01,10.27-2.12,4.31-3.18,9.36-3.18,14.87,0,5.55,1.06,10.56,3.18,14.96,2.12,4.4,5.11,7.85,8.91,10.39,3.89,2.47,8.49,3.71,13.69,3.71s9.54-1.15,13.33-3.45c1.94-1.15,3.71-2.65,5.38-4.4v1.06c0,1.24-.35,1.59-1.77,1.59h-17.16c-1.24,0-1.86,.35-1.86,1.33v17.07c0,1.24,.62,1.59,1.86,1.59h38.76c1.68,0,2.12-.35,2.12-1.59v-50.14c0-5.29-1.24-10.12-3.62-14.43-2.21-4.22-5.55-7.67-10.03-10.3-4.4-2.56-9.63-3.89-15.52-3.89-7.14,0-13.69,1.86-19.43,5.46-2.83,1.77-5.46,4.04-7.93,6.78-2.21,2.47-4.22,5.38-6.07,8.58-.71,1.33-.09,2.03,1.15,2.03h14.25c1.59,0,2.03-.35,3.27-2.12,.88-1.15,1.77-2.12,2.83-3.01,1.94-1.77,4.14-2.65,6.78-2.65,3.18,0,5.73,.97,7.58,3.01,1.86,1.94,2.74,4.75,2.74,8.32v.35c0,1.59-.97,2.03-3.09,2.03h-9.1c-9.1,0-16.42,2.21-22.07,6.6-5.64,4.4-8.49,10.3-8.49,17.77,0,5.02,1.33,9.45,3.89,13.24,2.56,3.8,6.07,6.78,10.38,8.85,4.4,2.12,9.19,3.18,14.43,3.18,5.73,0,10.83-1.24,15.43-3.8,2.29-1.24,4.4-2.92,6.42-4.93v1.15c0,1.24,.53,1.86,2.03,1.86h12.57c1.33,0,1.94-.53,1.94-1.77v-38.32c0-3.62-.88-6.52-2.56-8.49ZM312.31,7.41h18.12c1.15,0,1.77,.53,1.77,1.59v66.37c0,1.15-.62,1.68-1.77,1.68h-18.12c-1.24,0-1.77-.44-1.77-1.68V8.91c0-1.06,.53-1.5,1.77-1.5Zm-77.18,47.16c-2.29,2.38-5.2,3.62-8.58,3.62-3.18,0-5.82-1.15-8.05-3.45-2.21-2.29-3.27-5.11-3.27-8.49s1.06-6.25,3.27-8.58c2.12-2.29,4.84-3.45,8.05-3.45s5.99,1.15,8.49,3.45c2.38,2.29,3.54,5.11,3.54,8.49-.09,3.36-1.24,6.16-3.45,8.41Zm59.59,23.04c-.35,.18-.88,.18-1.24,.09-.35-.09-.53-.35-.53-.71v-2.74c0-.35,.09-.62,.35-.79,.18-.18,.53-.26,.97-.18,1.15,.18,2.29,.26,3.36,.26,1.33,0,2.38-.26,3.18-.88,.79-.62,1.15-1.33,1.15-2.29,0-.53-.18-.97-.44-1.33-.35-.44-.71-.79-1.06-1.06-.44-.35-1.06-.79-1.94-1.33l-1.77-1.24c-1.33-.97-2.29-1.94-2.92-3.09-.62-1.15-.97-2.38-.97-3.89,0-1.77,.44-3.27,1.33-4.58,.88-1.24,2.12-2.29,3.8-2.92,1.59-.71,3.54-1.06,5.73-1.06,1.94,0,4.14,.26,6.69,.71,1.33,.26,1.94,.97,1.94,2.12v1.68c0,.79-.35,1.15-1.06,1.06-.79-.09-1.59-.18-2.29-.26s-1.33-.09-1.94-.09c-1.5,0-2.65,.26-3.45,.71-.79,.53-1.24,1.24-1.24,2.12,0,.62,.26,1.15,.71,1.68,.44,.44,1.33,1.06,2.65,1.86,.88,.53,1.59,.97,2.03,1.33,1.77,1.24,2.92,2.38,3.62,3.54,.71,1.24,1.06,2.56,1.06,4.14,0,2.74-.97,4.84-2.92,6.42-1.94,1.59-4.75,2.38-8.32,2.38-1.76,.09-3.44-.09-5.48-.53Zm-13.95-.62c-.26,.35-.62,.53-1.15,.53h-4.22c-.44,0-.79-.18-1.06-.53-.26-.35-.35-.71-.35-1.15V56.85c0-3.09-.62-5.38-1.77-6.87-1.15-1.5-2.92-2.21-5.29-2.21-1.68,0-3.18,.44-4.4,1.33-1.24,.88-2.12,2.03-2.74,3.54-.62,1.5-.88,3.01-.88,4.75v22.69c0,.44-.09,.79-.35,1.15-.26,.35-.62,.53-1.15,.53h-4.14c-.44,0-.79-.18-1.06-.53-.26-.35-.35-.71-.35-1.15v-44.6c0-.44,.09-.79,.35-1.15,.26-.35,.62-.53,1.06-.53h4.14c.53,0,.88,.18,1.15,.53s.35,.71,.35,1.15v14.52c.79-1.24,2.03-2.29,3.54-3.09,1.59-.79,3.27-1.24,5.29-1.24,3.09,0,5.73,.71,7.85,2.12,2.12,1.5,3.71,3.36,4.75,5.82,1.06,2.47,1.59,5.29,1.59,8.41v19.08c-.09,.44-.18,.79-.44,1.15Zm-96.08-22.42c0,4.49-1.59,8.14-4.84,11.01-3.18,2.92-7.41,4.31-12.57,4.31-5.11,0-9.36-1.41-12.57-4.31-3.18-2.83-4.84-6.52-4.84-11.01,0-4.4,1.59-8.05,4.84-10.92,3.18-2.92,7.41-4.31,12.57-4.31,5.11,0,9.36,1.41,12.57,4.31,3.27,2.92,4.84,6.52,4.84,10.92Zm36.28-18.64v42.49c0,1.24-.35,1.94-1.94,1.94h-12.92c-1.59,0-1.94-.71-1.94-1.94v-42.49c0-1.59,.35-1.94,1.94-1.94h12.92c1.59,0,1.94,.44,1.94,1.94Z"/>
</svg>
