<svg width="240" height="48" viewBox="0 0 240 48" fill="none" xmlns="http://www.w3.org/2000/svg">
  <!-- RAG Icon -->
  <g transform="translate(0, 0)">
    <circle cx="24" cy="24" r="22" fill="#16a34a" fill-opacity="0.1" stroke="#16a34a" stroke-width="2"/>
    <!-- Network representation -->
    <circle cx="16" cy="16" r="4" fill="#16a34a"/>
    <circle cx="32" cy="16" r="4" fill="#16a34a"/>
    <circle cx="16" cy="32" r="4" fill="#16a34a"/>
    <circle cx="32" cy="32" r="4" fill="#16a34a"/>
    <circle cx="24" cy="24" r="6" fill="#86efac" stroke="#16a34a" stroke-width="1.5"/>
    <!-- Connections -->
    <line x1="16" y1="16" x2="24" y2="24" stroke="#16a34a" stroke-width="1.5"/>
    <line x1="32" y1="16" x2="24" y2="24" stroke="#16a34a" stroke-width="1.5"/>
    <line x1="16" y1="32" x2="24" y2="24" stroke="#16a34a" stroke-width="1.5"/>
    <line x1="32" y1="32" x2="24" y2="24" stroke="#16a34a" stroke-width="1.5"/>
  </g>
  
  <!-- Knowledge Base Icon -->
  <g transform="translate(48, 0)">
    <circle cx="24" cy="24" r="22" fill="#16a34a" fill-opacity="0.1" stroke="#16a34a" stroke-width="2"/>
    <!-- Books -->
    <rect x="12" y="14" width="24" height="6" rx="1" fill="#16a34a"/>
    <rect x="12" y="22" width="24" height="6" rx="1" fill="#16a34a"/>
    <rect x="12" y="30" width="24" height="6" rx="1" fill="#16a34a"/>
    <!-- Shine effect -->
    <path d="M14 14 L16 14 L14 16 Z" fill="#86efac"/>
    <path d="M14 22 L16 22 L14 24 Z" fill="#86efac"/>
    <path d="M14 30 L16 30 L14 32 Z" fill="#86efac"/>
  </g>
  
  <!-- NLP Icon -->
  <g transform="translate(96, 0)">
    <circle cx="24" cy="24" r="22" fill="#16a34a" fill-opacity="0.1" stroke="#16a34a" stroke-width="2"/>
    <!-- Text Processing -->
    <rect x="12" y="16" width="24" height="3" rx="1.5" fill="#16a34a"/>
    <rect x="12" y="22" width="18" height="3" rx="1.5" fill="#16a34a"/>
    <rect x="12" y="28" width="24" height="3" rx="1.5" fill="#16a34a"/>
    <!-- Highlight -->
    <rect x="16" y="16" width="8" height="3" rx="1.5" fill="#86efac"/>
    <rect x="20" y="22" width="6" height="3" rx="1.5" fill="#86efac"/>
    <rect x="24" y="28" width="8" height="3" rx="1.5" fill="#86efac"/>
  </g>
  
  <!-- Recommendation Engine Icon -->
  <g transform="translate(144, 0)">
    <circle cx="24" cy="24" r="22" fill="#16a34a" fill-opacity="0.1" stroke="#16a34a" stroke-width="2"/>
    <!-- Stars -->
    <path d="M24 12 L26 18 L32 18 L27 22 L29 28 L24 24 L19 28 L21 22 L16 18 L22 18 L24 12Z" fill="#16a34a"/>
    <!-- Small stars -->
    <path d="M16 26 L17 29 L20 29 L18 31 L19 34 L16 32 L13 34 L14 31 L12 29 L15 29 L16 26Z" fill="#86efac"/>
    <path d="M32 26 L33 29 L36 29 L34 31 L35 34 L32 32 L29 34 L30 31 L28 29 L31 29 L32 26Z" fill="#86efac"/>
  </g>
  
  <!-- Integration Icon -->
  <g transform="translate(192, 0)">
    <circle cx="24" cy="24" r="22" fill="#16a34a" fill-opacity="0.1" stroke="#16a34a" stroke-width="2"/>
    <!-- Puzzle pieces -->
    <path d="M16 14 H24 C24 17 27 17 27 14 V22 C24 22 24 25 27 25 V33 H16 V14Z" fill="#16a34a"/>
    <path d="M27 14 H35 V25 C32 25 32 28 35 28 V33 H27 V25 C30 25 30 22 27 22 V14Z" fill="#86efac"/>
  </g>
</svg> 