<svg width="64" height="64" viewBox="0 0 64 64" fill="none" xmlns="http://www.w3.org/2000/svg">
  <rect width="64" height="64" rx="14" fill="#fff"/>
  <path d="M12 9C12 13.4183 12 16 16 16H48C52 16 52 18.5817 52 23V41C52 45.4183 52 48 48 48H22L12 55V9Z" stroke="#39543A" stroke-width="3.5" fill="none" stroke-linejoin="round"/>
  <path d="M32 42V32" stroke="#39543A" stroke-width="2.2" stroke-linecap="round"/>
  <path d="M32 32C32 25 36.5 23 36.5 23C36.5 23 32 21 32 32Z" fill="#39543A"/>
  <path d="M32 32C32 27 27 27 27 27C27 27 29 33 32 32Z" fill="#39543A"/>
  <path d="M32 32C32 27 37 27 37 27C37 27 35 33 32 32Z" fill="#39543A"/>
  <circle cx="36.5" cy="23" r="1.1" fill="#6BBF59"/>
  <circle cx="27" cy="27" r="1.1" fill="#6BBF59"/>
  <circle cx="37" cy="27" r="1.1" fill="#6BBF59"/>
</svg>
