<svg xmlns="http://www.w3.org/2000/svg" width="192" height="192" viewBox="0 0 192 192" fill="none">
  <rect width="192" height="192" rx="32" fill="#ffffff"/>
  <!-- Outer rounded-corner frame -->
  <path
    d="M36 27C36 40.255 36 48 48 48H144C156 48 156 55.745 156 69V123C156 136.255 156 144 144 144H66L36 165V27Z"
    stroke="#39543A"
    strokeWidth="10"
    fill="none"
    strokeLinejoin="round"
  />
  <!-- Sprout stem -->
  <path
    d="M96 126V96"
    stroke="#39543A"
    strokeWidth="7"
    strokeLinecap="round"
  />
  <!-- Center leaf -->
  <path
    d="M96 96C96 75 109.5 69 109.5 69C109.5 69 96 63 96 96Z"
    fill="#39543A"
  />
  <!-- Left leaf -->
  <path
    d="M96 96C96 81 81 81 81 81C81 81 87 99 96 96Z"
    fill="#39543A"
  />
  <!-- Right leaf -->
  <path
    d="M96 96C96 81 111 81 111 81C111 81 105 99 96 96Z"
    fill="#39543A"
  />
  <!-- Circuit/AI nodes on leaves -->
  <circle
    cx="109.5"
    cy="69"
    r="3.3"
    fill="#6BBF59"
  />
  <circle
    cx="81"
    cy="81"
    r="3.3"
    fill="#6BBF59"
  />
  <circle
    cx="111"
    cy="81"
    r="3.3"
    fill="#6BBF59"
  />
</svg>
